<svg width="22" height="29" viewBox="0 0 22 29" fill="none" xmlns="http://www.w3.org/2000/svg">
<path d="M2.99992 28.3333C2.26659 28.3333 1.63859 28.072 1.11592 27.5493C0.593254 27.0267 0.332365 26.3991 0.333254 25.6667V12.3333C0.333254 11.6 0.594587 10.972 1.11725 10.4493C1.63992 9.92668 2.26748 9.66579 2.99992 9.66668H4.33325V7.00001C4.33325 5.15557 4.98348 3.58312 6.28392 2.28268C7.58437 0.982233 9.15637 0.332456 10.9999 0.333344C12.8444 0.333344 14.4168 0.983567 15.7173 2.28401C17.0177 3.58446 17.6675 5.15646 17.6666 7.00001V9.66668H18.9999C19.7333 9.66668 20.3613 9.92801 20.8839 10.4507C21.4066 10.9733 21.6675 11.6009 21.6666 12.3333V25.6667C21.6666 26.4 21.4053 27.028 20.8826 27.5507C20.3599 28.0733 19.7324 28.3342 18.9999 28.3333H2.99992ZM10.9999 21.6667C11.7333 21.6667 12.3613 21.4053 12.8839 20.8827C13.4066 20.36 13.6675 19.7325 13.6666 19C13.6666 18.2667 13.4053 17.6387 12.8826 17.116C12.3599 16.5933 11.7324 16.3325 10.9999 16.3333C10.2666 16.3333 9.63859 16.5947 9.11592 17.1173C8.59325 17.64 8.33237 18.2676 8.33325 19C8.33325 19.7333 8.59459 20.3613 9.11725 20.884C9.63992 21.4067 10.2675 21.6676 10.9999 21.6667ZM6.99992 9.66668H14.9999V7.00001C14.9999 5.8889 14.611 4.94446 13.8333 4.16668C13.0555 3.3889 12.111 3.00001 10.9999 3.00001C9.88881 3.00001 8.94437 3.3889 8.16659 4.16668C7.38881 4.94446 6.99992 5.8889 6.99992 7.00001V9.66668Z" fill="black"/>
</svg>
