<svg width="96" height="19" viewBox="0 0 96 19" fill="none" xmlns="http://www.w3.org/2000/svg">
<path d="M15.8409 9.27273C15.8409 11.1136 15.5085 12.7045 14.8438 14.0455C14.179 15.3864 13.267 16.4205 12.108 17.1477C10.9489 17.875 9.625 18.2386 8.13636 18.2386C6.64773 18.2386 5.32386 17.875 4.16477 17.1477C3.00568 16.4205 2.09375 15.3864 1.42898 14.0455C0.764205 12.7045 0.431818 11.1136 0.431818 9.27273C0.431818 7.43182 0.764205 5.84091 1.42898 4.5C2.09375 3.15909 3.00568 2.125 4.16477 1.39773C5.32386 0.670454 6.64773 0.306818 8.13636 0.306818C9.625 0.306818 10.9489 0.670454 12.108 1.39773C13.267 2.125 14.179 3.15909 14.8438 4.5C15.5085 5.84091 15.8409 7.43182 15.8409 9.27273ZM13.7955 9.27273C13.7955 7.76136 13.5426 6.4858 13.0369 5.44602C12.5369 4.40625 11.858 3.61932 11 3.08523C10.1477 2.55114 9.19318 2.28409 8.13636 2.28409C7.07955 2.28409 6.12216 2.55114 5.2642 3.08523C4.41193 3.61932 3.73295 4.40625 3.22727 5.44602C2.72727 6.4858 2.47727 7.76136 2.47727 9.27273C2.47727 10.7841 2.72727 12.0597 3.22727 13.0994C3.73295 14.1392 4.41193 14.9261 5.2642 15.4602C6.12216 15.9943 7.07955 16.2614 8.13636 16.2614C9.19318 16.2614 10.1477 15.9943 11 15.4602C11.858 14.9261 12.5369 14.1392 13.0369 13.0994C13.5426 12.0597 13.7955 10.7841 13.7955 9.27273ZM21.1335 10.125V18H19.1222V4.90909H21.0653V6.95455H21.2358C21.5426 6.28977 22.0085 5.75568 22.6335 5.35227C23.2585 4.94318 24.0653 4.73864 25.054 4.73864C25.9403 4.73864 26.7159 4.92045 27.3807 5.28409C28.0455 5.64205 28.5625 6.1875 28.9318 6.92045C29.3011 7.64773 29.4858 8.56818 29.4858 9.68182V18H27.4744V9.81818C27.4744 8.78977 27.2074 7.98864 26.6733 7.41477C26.1392 6.83523 25.4063 6.54545 24.4744 6.54545C23.8324 6.54545 23.2585 6.68466 22.7528 6.96307C22.2528 7.24148 21.858 7.64773 21.5682 8.18182C21.2784 8.71591 21.1335 9.36364 21.1335 10.125ZM33.4339 18V0.545454H35.4453V6.98864H35.6158C35.7635 6.76136 35.968 6.47159 36.2294 6.11932C36.4964 5.76136 36.8771 5.44318 37.3714 5.16477C37.8714 4.88068 38.5476 4.73864 39.3999 4.73864C40.5021 4.73864 41.4737 5.0142 42.3146 5.56534C43.1555 6.11648 43.8118 6.89773 44.2834 7.90909C44.755 8.92045 44.9908 10.1136 44.9908 11.4886C44.9908 12.875 44.755 14.0767 44.2834 15.0938C43.8118 16.1051 43.1584 16.8892 42.3232 17.446C41.4879 17.9972 40.5249 18.2727 39.4339 18.2727C38.593 18.2727 37.9197 18.1335 37.4141 17.8551C36.9084 17.571 36.5192 17.25 36.2464 16.892C35.9737 16.5284 35.7635 16.2273 35.6158 15.9886H35.3771V18H33.4339ZM35.4112 11.4545C35.4112 12.4432 35.5561 13.3153 35.8459 14.071C36.1357 14.821 36.5589 15.4091 37.1158 15.8352C37.6726 16.2557 38.3544 16.4659 39.1612 16.4659C40.0021 16.4659 40.7038 16.2443 41.2663 15.8011C41.8345 15.3523 42.2607 14.75 42.5447 13.9943C42.8345 13.233 42.9794 12.3864 42.9794 11.4545C42.9794 10.5341 42.8374 9.70455 42.5533 8.96591C42.2749 8.22159 41.8516 7.63352 41.2834 7.2017C40.7209 6.7642 40.0135 6.54545 39.1612 6.54545C38.343 6.54545 37.6555 6.75284 37.0987 7.16761C36.5419 7.5767 36.1214 8.15057 35.8374 8.8892C35.5533 9.62216 35.4112 10.4773 35.4112 11.4545ZM53.3857 18.2727C52.2038 18.2727 51.1669 17.9915 50.2749 17.429C49.3885 16.8665 48.6953 16.0795 48.1953 15.0682C47.701 14.0568 47.4538 12.875 47.4538 11.5227C47.4538 10.1591 47.701 8.96875 48.1953 7.9517C48.6953 6.93466 49.3885 6.14489 50.2749 5.58239C51.1669 5.01989 52.2038 4.73864 53.3857 4.73864C54.5675 4.73864 55.6016 5.01989 56.4879 5.58239C57.38 6.14489 58.0732 6.93466 58.5675 7.9517C59.0675 8.96875 59.3175 10.1591 59.3175 11.5227C59.3175 12.875 59.0675 14.0568 58.5675 15.0682C58.0732 16.0795 57.38 16.8665 56.4879 17.429C55.6016 17.9915 54.5675 18.2727 53.3857 18.2727ZM53.3857 16.4659C54.2834 16.4659 55.022 16.2358 55.6016 15.7756C56.1811 15.3153 56.6101 14.7102 56.8885 13.9602C57.1669 13.2102 57.3061 12.3977 57.3061 11.5227C57.3061 10.6477 57.1669 9.83239 56.8885 9.0767C56.6101 8.32102 56.1811 7.71023 55.6016 7.24432C55.022 6.77841 54.2834 6.54545 53.3857 6.54545C52.4879 6.54545 51.7493 6.77841 51.1697 7.24432C50.5902 7.71023 50.1612 8.32102 49.8828 9.0767C49.6044 9.83239 49.4652 10.6477 49.4652 11.5227C49.4652 12.3977 49.6044 13.2102 49.8828 13.9602C50.1612 14.7102 50.5902 15.3153 51.1697 15.7756C51.7493 16.2358 52.4879 16.4659 53.3857 16.4659ZM66.2401 18.3068C65.4105 18.3068 64.6577 18.1506 63.9815 17.8381C63.3054 17.5199 62.7685 17.0625 62.3707 16.4659C61.973 15.8636 61.7741 15.1364 61.7741 14.2841C61.7741 13.5341 61.9219 12.9261 62.2173 12.4602C62.5128 11.9886 62.9077 11.6193 63.402 11.3523C63.8963 11.0852 64.4418 10.8864 65.0384 10.7557C65.6406 10.6193 66.2457 10.5114 66.8537 10.4318C67.6491 10.3295 68.294 10.2528 68.7884 10.2017C69.2884 10.1449 69.652 10.0511 69.8793 9.92045C70.1122 9.78977 70.2287 9.5625 70.2287 9.23864V9.17045C70.2287 8.32955 69.9986 7.67614 69.5384 7.21023C69.0838 6.74432 68.3935 6.51136 67.4673 6.51136C66.5071 6.51136 65.7543 6.72159 65.2088 7.14205C64.6634 7.5625 64.2798 8.01136 64.0582 8.48864L62.1491 7.80682C62.4901 7.01136 62.9446 6.39205 63.5128 5.94886C64.0866 5.5 64.7116 5.1875 65.3878 5.01136C66.0696 4.82955 66.7401 4.73864 67.3991 4.73864C67.8196 4.73864 68.3026 4.78977 68.848 4.89204C69.3991 4.98864 69.9304 5.19034 70.4418 5.49716C70.9588 5.80398 71.3878 6.26705 71.7287 6.88636C72.0696 7.50568 72.2401 8.33523 72.2401 9.375V18H70.2287V16.2273H70.1264C69.9901 16.5114 69.7628 16.8153 69.4446 17.1392C69.1264 17.4631 68.7031 17.7386 68.1747 17.9659C67.6463 18.1932 67.0014 18.3068 66.2401 18.3068ZM66.5469 16.5C67.3423 16.5 68.0128 16.3438 68.5582 16.0312C69.1094 15.7188 69.5241 15.3153 69.8026 14.821C70.0866 14.3267 70.2287 13.8068 70.2287 13.2614V11.4205C70.1435 11.5227 69.956 11.6165 69.6662 11.7017C69.3821 11.7812 69.0526 11.8523 68.6776 11.9148C68.3082 11.9716 67.9474 12.0227 67.5952 12.0682C67.2486 12.108 66.9673 12.142 66.7514 12.1705C66.2287 12.2386 65.7401 12.3494 65.2855 12.5028C64.8366 12.6506 64.473 12.875 64.1946 13.1761C63.9219 13.4716 63.7855 13.875 63.7855 14.3864C63.7855 15.0852 64.044 15.6136 64.5611 15.9716C65.0838 16.3239 65.7457 16.5 66.5469 16.5ZM75.9112 18V4.90909H77.8544V6.88636H77.9908C78.2294 6.23864 78.6612 5.71307 79.2862 5.30966C79.9112 4.90625 80.6158 4.70454 81.3999 4.70454C81.5476 4.70454 81.7322 4.70739 81.9538 4.71307C82.1754 4.71875 82.343 4.72727 82.4567 4.73864V6.78409C82.3885 6.76705 82.2322 6.74148 81.9879 6.70739C81.7493 6.66761 81.4964 6.64773 81.2294 6.64773C80.593 6.64773 80.0249 6.78125 79.5249 7.0483C79.0305 7.30966 78.6385 7.6733 78.3487 8.1392C78.0646 8.59943 77.9226 9.125 77.9226 9.71591V18H75.9112ZM89.3857 18.2727C88.2947 18.2727 87.3317 17.9972 86.4964 17.446C85.6612 16.8892 85.0078 16.1051 84.5362 15.0938C84.0646 14.0767 83.8288 12.875 83.8288 11.4886C83.8288 10.1136 84.0646 8.92045 84.5362 7.90909C85.0078 6.89773 85.6641 6.11648 86.505 5.56534C87.3459 5.0142 88.3175 4.73864 89.4197 4.73864C90.272 4.73864 90.9453 4.88068 91.4396 5.16477C91.9396 5.44318 92.3203 5.76136 92.5817 6.11932C92.8487 6.47159 93.0561 6.76136 93.2038 6.98864H93.3743V0.545454H95.3857V18H93.4425V15.9886H93.2038C93.0561 16.2273 92.8459 16.5284 92.5732 16.892C92.3004 17.25 91.9112 17.571 91.4055 17.8551C90.8999 18.1335 90.2266 18.2727 89.3857 18.2727ZM89.6584 16.4659C90.4652 16.4659 91.147 16.2557 91.7038 15.8352C92.2607 15.4091 92.6839 14.821 92.9737 14.071C93.2635 13.3153 93.4084 12.4432 93.4084 11.4545C93.4084 10.4773 93.2663 9.62216 92.9822 8.8892C92.6982 8.15057 92.2777 7.5767 91.7209 7.16761C91.1641 6.75284 90.4766 6.54545 89.6584 6.54545C88.8061 6.54545 88.0959 6.7642 87.5277 7.2017C86.9652 7.63352 86.5419 8.22159 86.2578 8.96591C85.9794 9.70455 85.8402 10.5341 85.8402 11.4545C85.8402 12.3864 85.9822 13.233 86.2663 13.9943C86.5561 14.75 86.9822 15.3523 87.5447 15.8011C88.1129 16.2443 88.8175 16.4659 89.6584 16.4659Z" fill="black"/>
</svg>
