<svg width="29" height="29" viewBox="0 0 29 29" fill="none" xmlns="http://www.w3.org/2000/svg">
<path d="M11.9918 15.8894L25.1828 7.64343M11.9918 15.8894L13.8288 23.497C13.8501 23.6002 13.9005 23.6951 13.9741 23.7704C14.0476 23.8458 14.1413 23.8984 14.2439 23.9221C14.3465 23.9458 14.4538 23.9395 14.553 23.904C14.6521 23.8685 14.739 23.8052 14.8032 23.7218L25.1828 7.64343M11.9918 15.8894L5.95764 10.9056C5.87421 10.8413 5.81099 10.7545 5.77549 10.6553C5.73998 10.5561 5.7337 10.4489 5.75737 10.3463C5.78104 10.2436 5.83368 10.15 5.90902 10.0764C5.98437 10.0028 6.07926 9.95242 6.18241 9.93119L25.1828 7.64343" stroke="black" stroke-linecap="round" stroke-linejoin="round"/>
</svg>

