<svg width="18" height="18" viewBox="0 0 18 18" fill="none" xmlns="http://www.w3.org/2000/svg">
<g opacity="0.6">
<path d="M10.3725 14.25C10.2605 14.2504 10.1497 14.2257 10.0485 14.1776C9.94728 14.1296 9.85809 14.0595 9.7875 13.9725L6.165 9.4725C6.05469 9.3383 5.99438 9.16997 5.99438 8.99625C5.99438 8.82253 6.05469 8.6542 6.165 8.52L9.915 4.02C10.0423 3.86684 10.2252 3.77052 10.4236 3.75224C10.6219 3.73395 10.8193 3.7952 10.9725 3.9225C11.1257 4.0498 11.222 4.23274 11.2403 4.43106C11.2586 4.62938 11.1973 4.82684 11.07 4.98L7.7175 9L10.9575 13.02C11.0492 13.1301 11.1075 13.2641 11.1254 13.4063C11.1433 13.5485 11.1201 13.6928 11.0586 13.8222C10.997 13.9516 10.8997 14.0606 10.7781 14.1365C10.6565 14.2123 10.5158 14.2517 10.3725 14.25Z" fill="black"/>
</g>
</svg>
