<svg width="245" height="168" viewBox="0 0 245 168" fill="none" xmlns="http://www.w3.org/2000/svg">
<rect x="165.178" y="14.8417" width="89" height="129" rx="12" transform="rotate(65 165.178 14.8417)" fill="#1761fd"/>
<rect x="165.178" y="14.8417" width="89" height="129" rx="12" transform="rotate(65 165.178 14.8417)" fill="white" fill-opacity="0.9"/>
<path opacity="0.2" d="M157.884 64.4845L128.124 91.4077L98.8086 63.9948L157.884 64.4845Z" fill="white"/>
<path d="M157.932 58.7109L98.8554 58.2211C98.2026 58.2157 97.5744 58.4707 97.109 58.9301C96.6436 59.3894 96.3791 60.0155 96.3737 60.6706L96.0379 101.732C96.0272 103.042 96.5381 103.994 97.4538 104.928C98.3694 105.863 99.6174 106.393 100.923 106.404L155.076 106.853C156.382 106.864 157.638 106.354 158.569 105.435C159.5 104.516 160.026 103.573 160.037 102.263L160.373 61.2012C160.378 60.5461 160.124 59.9158 159.666 59.4487C159.208 58.9817 158.584 58.7163 157.932 58.7109ZM128.152 86.5145L100.056 61.9361L156.671 62.4055L128.152 86.5145ZM119.179 83.0901L99.7483 99.5431L100.02 66.314L119.179 83.0901ZM121.557 85.421L126.459 89.9122C126.91 90.3342 127.502 90.5713 128.119 90.5764C128.735 90.5815 129.331 90.3543 129.789 89.9398L134.472 86.5669L152.799 103.129L100.953 102.699L121.557 85.421ZM136.798 84.2548L156.635 66.7834L156.344 102.382L136.798 84.2548Z" fill="#1761fd"/>
<rect x="16" y="64" width="57" height="6" rx="3" fill="#1761fd"/>
<rect x="176" y="64" width="45" height="6" rx="3" fill="#1761fd"/>
<rect y="84" width="57" height="6" rx="3" fill="#1761fd"/>
<rect x="16" y="104" width="57" height="6" rx="3" fill="#1761fd"/>
<rect x="181" y="84" width="57" height="6" rx="3" fill="#1761fd"/>
</svg>
