<svg width="340" height="300" viewBox="0 0 340 300" fill="none" xmlns="http://www.w3.org/2000/svg">
<path d="M12.608 292.448C10.336 292.448 8.336 291.968 6.608 291.008C4.88 290.037 3.53067 288.683 2.56 286.944C1.6 285.195 1.12 283.147 1.12 280.8C1.12 278.453 1.616 276.411 2.608 274.672C3.61067 272.923 4.98667 271.568 6.736 270.608C8.48533 269.637 10.4853 269.152 12.736 269.152C13.92 269.152 15.0027 269.28 15.984 269.536C16.9653 269.781 17.8133 270.091 18.528 270.464L18.08 274.368C17.2693 273.995 16.432 273.691 15.568 273.456C14.7147 273.211 13.76 273.088 12.704 273.088C11.136 273.088 9.824 273.419 8.768 274.08C7.72267 274.741 6.93333 275.653 6.4 276.816C5.86667 277.979 5.6 279.307 5.6 280.8C5.6 282.293 5.86133 283.621 6.384 284.784C6.90667 285.947 7.68533 286.859 8.72 287.52C9.76533 288.181 11.0613 288.512 12.608 288.512C13.6853 288.512 14.6507 288.395 15.504 288.16C16.3573 287.925 17.216 287.616 18.08 287.232L18.528 291.136C17.6853 291.531 16.7573 291.845 15.744 292.08C14.7413 292.325 13.696 292.448 12.608 292.448ZM21.356 292V276H25.068L25.164 277.696C25.5693 277.248 26.14 276.8 26.876 276.352C27.612 275.904 28.4173 275.68 29.292 275.68C29.548 275.68 29.7827 275.701 29.996 275.744L29.708 279.648C29.4733 279.584 29.2387 279.541 29.004 279.52C28.78 279.499 28.556 279.488 28.332 279.488C27.66 279.488 27.0467 279.643 26.492 279.952C25.9373 280.261 25.548 280.64 25.324 281.088V292H21.356ZM39.3493 292.32C37.4186 292.32 35.8079 291.936 34.5173 291.168C33.2373 290.389 32.2773 289.365 31.6373 288.096C30.9973 286.816 30.6773 285.419 30.6773 283.904C30.6773 282.443 30.9759 281.093 31.5733 279.856C32.1813 278.619 33.0666 277.627 34.2293 276.88C35.3919 276.123 36.8106 275.744 38.4853 275.744C40.0213 275.744 41.3013 276.059 42.3253 276.688C43.3493 277.317 44.1173 278.16 44.6293 279.216C45.1413 280.261 45.3973 281.419 45.3973 282.688C45.3973 283.04 45.3759 283.397 45.3333 283.76C45.2906 284.112 45.2266 284.48 45.1413 284.864H34.8053C34.9546 285.856 35.2639 286.661 35.7333 287.28C36.2133 287.888 36.7946 288.336 37.4773 288.624C38.1706 288.912 38.9119 289.056 39.7013 289.056C40.6293 289.056 41.4933 288.939 42.2933 288.704C43.0933 288.459 43.8293 288.139 44.5013 287.744L44.6933 291.104C44.0853 291.424 43.3279 291.707 42.4213 291.952C41.5146 292.197 40.4906 292.32 39.3493 292.32ZM34.9013 282.176H41.3653C41.3653 281.696 41.2746 281.216 41.0933 280.736C40.9119 280.245 40.6079 279.835 40.1813 279.504C39.7653 279.173 39.1999 279.008 38.4853 279.008C37.4613 279.008 36.6559 279.307 36.0693 279.904C35.4826 280.501 35.0933 281.259 34.9013 282.176ZM51.562 292.32C50.7087 292.32 49.93 292.133 49.226 291.76C48.522 291.376 47.962 290.827 47.546 290.112C47.13 289.397 46.922 288.533 46.922 287.52C46.922 286.613 47.13 285.84 47.546 285.2C47.9727 284.549 48.5273 284.011 49.21 283.584C49.9033 283.147 50.65 282.805 51.45 282.56C52.2607 282.304 53.0553 282.117 53.834 282C54.6233 281.883 55.3167 281.813 55.914 281.792C55.8713 280.875 55.6367 280.208 55.21 279.792C54.7833 279.376 54.058 279.168 53.034 279.168C52.3193 279.168 51.6207 279.269 50.938 279.472C50.266 279.664 49.5033 279.968 48.65 280.384L48.298 277.152C49.258 276.683 50.218 276.331 51.178 276.096C52.1487 275.861 53.13 275.744 54.122 275.744C55.3167 275.744 56.346 275.957 57.21 276.384C58.074 276.811 58.7407 277.499 59.21 278.448C59.6793 279.387 59.914 280.629 59.914 282.176V286.496C59.914 287.296 59.9513 287.877 60.026 288.24C60.1007 288.592 60.2393 288.816 60.442 288.912C60.6447 289.008 60.938 289.056 61.322 289.056H61.834L61.482 292.32H60.042C59.4447 292.32 58.9113 292.24 58.442 292.08C57.9833 291.931 57.5887 291.717 57.258 291.44C56.9273 291.163 56.6607 290.837 56.458 290.464C55.9353 291.051 55.226 291.509 54.33 291.84C53.4447 292.16 52.522 292.32 51.562 292.32ZM53.226 289.28C53.578 289.28 54.0153 289.189 54.538 289.008C55.0607 288.816 55.53 288.523 55.946 288.128V284.48C55.1993 284.512 54.4527 284.635 53.706 284.848C52.9593 285.061 52.3353 285.376 51.834 285.792C51.3327 286.208 51.082 286.731 51.082 287.36C51.082 288.011 51.2527 288.496 51.594 288.816C51.9353 289.125 52.4793 289.28 53.226 289.28ZM69.0095 292.32C68.0068 292.32 67.1908 292.117 66.5615 291.712C65.9322 291.296 65.4682 290.768 65.1695 290.128C64.8708 289.488 64.7215 288.821 64.7215 288.128V279.264H62.4495L62.8015 276H64.7215V272.48L68.6895 272.064V276H72.2095V279.264H68.6895V286.496C68.6895 287.307 68.7375 287.893 68.8335 288.256C68.9295 288.608 69.1482 288.832 69.4895 288.928C69.8308 289.013 70.3748 289.056 71.1215 289.056H72.2095L71.8575 292.32H69.0095ZM82.5055 292.32C80.5748 292.32 78.9642 291.936 77.6735 291.168C76.3935 290.389 75.4335 289.365 74.7935 288.096C74.1535 286.816 73.8335 285.419 73.8335 283.904C73.8335 282.443 74.1322 281.093 74.7295 279.856C75.3375 278.619 76.2228 277.627 77.3855 276.88C78.5482 276.123 79.9668 275.744 81.6415 275.744C83.1775 275.744 84.4575 276.059 85.4815 276.688C86.5055 277.317 87.2735 278.16 87.7855 279.216C88.2975 280.261 88.5535 281.419 88.5535 282.688C88.5535 283.04 88.5322 283.397 88.4895 283.76C88.4468 284.112 88.3828 284.48 88.2975 284.864H77.9615C78.1108 285.856 78.4202 286.661 78.8895 287.28C79.3695 287.888 79.9508 288.336 80.6335 288.624C81.3268 288.912 82.0682 289.056 82.8575 289.056C83.7855 289.056 84.6495 288.939 85.4495 288.704C86.2495 288.459 86.9855 288.139 87.6575 287.744L87.8495 291.104C87.2415 291.424 86.4842 291.707 85.5775 291.952C84.6708 292.197 83.6468 292.32 82.5055 292.32ZM78.0575 282.176H84.5215C84.5215 281.696 84.4308 281.216 84.2495 280.736C84.0682 280.245 83.7642 279.835 83.3375 279.504C82.9215 279.173 82.3562 279.008 81.6415 279.008C80.6175 279.008 79.8122 279.307 79.2255 279.904C78.6388 280.501 78.2495 281.259 78.0575 282.176ZM109.202 292.448C106.93 292.448 104.93 291.968 103.202 291.008C101.474 290.037 100.124 288.683 99.1538 286.944C98.1938 285.195 97.7138 283.147 97.7138 280.8C97.7138 278.453 98.2098 276.411 99.2018 274.672C100.204 272.923 101.58 271.568 103.33 270.608C105.079 269.637 107.079 269.152 109.33 269.152C110.514 269.152 111.596 269.28 112.578 269.536C113.559 269.781 114.407 270.091 115.122 270.464L114.674 274.368C113.863 273.995 113.026 273.691 112.162 273.456C111.308 273.211 110.354 273.088 109.298 273.088C107.73 273.088 106.418 273.419 105.362 274.08C104.316 274.741 103.527 275.653 102.994 276.816C102.46 277.979 102.194 279.307 102.194 280.8C102.194 282.293 102.455 283.621 102.978 284.784C103.5 285.947 104.279 286.859 105.314 287.52C106.359 288.181 107.655 288.512 109.202 288.512C110.279 288.512 111.244 288.395 112.098 288.16C112.951 287.925 113.81 287.616 114.674 287.232L115.122 291.136C114.279 291.531 113.351 291.845 112.338 292.08C111.335 292.325 110.29 292.448 109.202 292.448ZM124.901 292.32C123.163 292.32 121.68 291.941 120.453 291.184C119.227 290.427 118.288 289.419 117.637 288.16C116.997 286.901 116.677 285.525 116.677 284.032C116.677 282.528 116.997 281.141 117.637 279.872C118.288 278.603 119.227 277.589 120.453 276.832C121.68 276.064 123.163 275.68 124.901 275.68C126.64 275.68 128.123 276.064 129.349 276.832C130.576 277.589 131.509 278.603 132.149 279.872C132.8 281.141 133.125 282.528 133.125 284.032C133.125 285.525 132.8 286.901 132.149 288.16C131.509 289.419 130.576 290.427 129.349 291.184C128.123 291.941 126.64 292.32 124.901 292.32ZM124.901 289.056C126.235 289.056 127.259 288.592 127.973 287.664C128.699 286.725 129.061 285.515 129.061 284.032C129.061 282.528 128.699 281.307 127.973 280.368C127.259 279.419 126.235 278.944 124.901 278.944C123.579 278.944 122.555 279.419 121.829 280.368C121.104 281.307 120.741 282.528 120.741 284.032C120.741 285.515 121.104 286.725 121.829 287.664C122.555 288.592 123.579 289.056 124.901 289.056ZM135.887 292V276H139.599L139.759 278.976L138.831 277.76C139.439 277.248 140.165 276.784 141.007 276.368C141.85 275.952 142.831 275.744 143.951 275.744C145.999 275.744 147.519 276.427 148.511 277.792C149.503 279.147 149.999 280.907 149.999 283.072V292H146.031V283.392C146.031 281.899 145.781 280.795 145.279 280.08C144.789 279.365 143.983 279.008 142.863 279.008C141.957 279.008 141.215 279.232 140.639 279.68C140.063 280.117 139.557 280.704 139.119 281.44L139.855 279.488V292H135.887ZM158.572 292.32C157.569 292.32 156.753 292.117 156.124 291.712C155.495 291.296 155.031 290.768 154.732 290.128C154.433 289.488 154.284 288.821 154.284 288.128V279.264H152.012L152.364 276H154.284V272.48L158.252 272.064V276H161.772V279.264H158.252V286.496C158.252 287.307 158.3 287.893 158.396 288.256C158.492 288.608 158.711 288.832 159.052 288.928C159.393 289.013 159.937 289.056 160.684 289.056H161.772L161.42 292.32H158.572ZM172.068 292.32C170.137 292.32 168.527 291.936 167.236 291.168C165.956 290.389 164.996 289.365 164.356 288.096C163.716 286.816 163.396 285.419 163.396 283.904C163.396 282.443 163.695 281.093 164.292 279.856C164.9 278.619 165.785 277.627 166.948 276.88C168.111 276.123 169.529 275.744 171.204 275.744C172.74 275.744 174.02 276.059 175.044 276.688C176.068 277.317 176.836 278.16 177.348 279.216C177.86 280.261 178.116 281.419 178.116 282.688C178.116 283.04 178.095 283.397 178.052 283.76C178.009 284.112 177.945 284.48 177.86 284.864H167.524C167.673 285.856 167.983 286.661 168.452 287.28C168.932 287.888 169.513 288.336 170.196 288.624C170.889 288.912 171.631 289.056 172.42 289.056C173.348 289.056 174.212 288.939 175.012 288.704C175.812 288.459 176.548 288.139 177.22 287.744L177.412 291.104C176.804 291.424 176.047 291.707 175.14 291.952C174.233 292.197 173.209 292.32 172.068 292.32ZM167.62 282.176H174.084C174.084 281.696 173.993 281.216 173.812 280.736C173.631 280.245 173.327 279.835 172.9 279.504C172.484 279.173 171.919 279.008 171.204 279.008C170.18 279.008 169.375 279.307 168.788 279.904C168.201 280.501 167.812 281.259 167.62 282.176ZM180.825 292V276H184.537L184.697 278.976L183.769 277.76C184.377 277.248 185.102 276.784 185.945 276.368C186.787 275.952 187.769 275.744 188.889 275.744C190.937 275.744 192.457 276.427 193.449 277.792C194.441 279.147 194.937 280.907 194.937 283.072V292H190.969V283.392C190.969 281.899 190.718 280.795 190.217 280.08C189.726 279.365 188.921 279.008 187.801 279.008C186.894 279.008 186.153 279.232 185.577 279.68C185.001 280.117 184.494 280.704 184.057 281.44L184.793 279.488V292H180.825ZM203.51 292.32C202.507 292.32 201.691 292.117 201.062 291.712C200.432 291.296 199.968 290.768 199.67 290.128C199.371 289.488 199.222 288.821 199.222 288.128V279.264H196.95L197.302 276H199.222V272.48L203.19 272.064V276H206.71V279.264H203.19V286.496C203.19 287.307 203.238 287.893 203.334 288.256C203.43 288.608 203.648 288.832 203.99 288.928C204.331 289.013 204.875 289.056 205.622 289.056H206.71L206.358 292.32H203.51ZM220.577 292.32C219.628 292.32 218.849 292.133 218.241 291.76C217.644 291.376 217.201 290.869 216.913 290.24C216.625 289.6 216.481 288.896 216.481 288.128V268H220.449V286.496C220.449 287.349 220.497 287.957 220.593 288.32C220.7 288.672 220.892 288.885 221.169 288.96C221.446 289.024 221.846 289.056 222.369 289.056L222.017 292.32H220.577ZM224.887 292V276H228.855V292H224.887ZM224.887 273.568V269.6H228.855V273.568H224.887ZM232.543 292V268H236.511V282.56L241.471 276H245.951L240.127 283.68L246.079 292H241.599L236.511 284.896V292H232.543ZM255.131 292.32C253.2 292.32 251.589 291.936 250.299 291.168C249.019 290.389 248.059 289.365 247.419 288.096C246.779 286.816 246.459 285.419 246.459 283.904C246.459 282.443 246.757 281.093 247.355 279.856C247.963 278.619 248.848 277.627 250.011 276.88C251.173 276.123 252.592 275.744 254.267 275.744C255.803 275.744 257.083 276.059 258.107 276.688C259.131 277.317 259.899 278.16 260.411 279.216C260.923 280.261 261.179 281.419 261.179 282.688C261.179 283.04 261.157 283.397 261.115 283.76C261.072 284.112 261.008 284.48 260.923 284.864H250.587C250.736 285.856 251.045 286.661 251.515 287.28C251.995 287.888 252.576 288.336 253.259 288.624C253.952 288.912 254.693 289.056 255.483 289.056C256.411 289.056 257.275 288.939 258.075 288.704C258.875 288.459 259.611 288.139 260.283 287.744L260.475 291.104C259.867 291.424 259.109 291.707 258.203 291.952C257.296 292.197 256.272 292.32 255.131 292.32ZM250.683 282.176H257.147C257.147 281.696 257.056 281.216 256.875 280.736C256.693 280.245 256.389 279.835 255.963 279.504C255.547 279.173 254.981 279.008 254.267 279.008C253.243 279.008 252.437 279.307 251.851 279.904C251.264 280.501 250.875 281.259 250.683 282.176ZM274.531 292.32C273.677 292.32 272.899 292.133 272.195 291.76C271.491 291.376 270.931 290.827 270.515 290.112C270.099 289.397 269.891 288.533 269.891 287.52C269.891 286.613 270.099 285.84 270.515 285.2C270.941 284.549 271.496 284.011 272.179 283.584C272.872 283.147 273.619 282.805 274.419 282.56C275.229 282.304 276.024 282.117 276.803 282C277.592 281.883 278.285 281.813 278.883 281.792C278.84 280.875 278.605 280.208 278.179 279.792C277.752 279.376 277.027 279.168 276.003 279.168C275.288 279.168 274.589 279.269 273.907 279.472C273.235 279.664 272.472 279.968 271.619 280.384L271.267 277.152C272.227 276.683 273.187 276.331 274.147 276.096C275.117 275.861 276.099 275.744 277.091 275.744C278.285 275.744 279.315 275.957 280.179 276.384C281.043 276.811 281.709 277.499 282.179 278.448C282.648 279.387 282.883 280.629 282.883 282.176V286.496C282.883 287.296 282.92 287.877 282.995 288.24C283.069 288.592 283.208 288.816 283.411 288.912C283.613 289.008 283.907 289.056 284.291 289.056H284.803L284.451 292.32H283.011C282.413 292.32 281.88 292.24 281.411 292.08C280.952 291.931 280.557 291.717 280.227 291.44C279.896 291.163 279.629 290.837 279.427 290.464C278.904 291.051 278.195 291.509 277.299 291.84C276.413 292.16 275.491 292.32 274.531 292.32ZM276.195 289.28C276.547 289.28 276.984 289.189 277.507 289.008C278.029 288.816 278.499 288.523 278.915 288.128V284.48C278.168 284.512 277.421 284.635 276.675 284.848C275.928 285.061 275.304 285.376 274.803 285.792C274.301 286.208 274.051 286.731 274.051 287.36C274.051 288.011 274.221 288.496 274.563 288.816C274.904 289.125 275.448 289.28 276.195 289.28ZM294.808 292V269.6H302.776C304.493 269.6 305.944 269.856 307.128 270.368C308.312 270.88 309.208 271.669 309.816 272.736C310.434 273.803 310.744 275.168 310.744 276.832C310.744 278.517 310.44 279.909 309.832 281.008C309.224 282.096 308.333 282.907 307.16 283.44C305.986 283.963 304.557 284.224 302.872 284.224H298.904V292H294.808ZM298.904 280.8H302.392C303.789 280.8 304.834 280.485 305.528 279.856C306.232 279.227 306.584 278.24 306.584 276.896C306.584 275.552 306.226 274.571 305.512 273.952C304.808 273.333 303.736 273.024 302.296 273.024H298.904V280.8ZM313.012 292V276H316.724L316.82 277.696C317.226 277.248 317.796 276.8 318.532 276.352C319.268 275.904 320.074 275.68 320.948 275.68C321.204 275.68 321.439 275.701 321.652 275.744L321.364 279.648C321.13 279.584 320.895 279.541 320.66 279.52C320.436 279.499 320.212 279.488 319.988 279.488C319.316 279.488 318.703 279.643 318.148 279.952C317.594 280.261 317.204 280.64 316.98 281.088V292H313.012ZM330.558 292.32C328.819 292.32 327.336 291.941 326.11 291.184C324.883 290.427 323.944 289.419 323.294 288.16C322.654 286.901 322.334 285.525 322.334 284.032C322.334 282.528 322.654 281.141 323.294 279.872C323.944 278.603 324.883 277.589 326.11 276.832C327.336 276.064 328.819 275.68 330.558 275.68C332.296 275.68 333.779 276.064 335.006 276.832C336.232 277.589 337.166 278.603 337.806 279.872C338.456 281.141 338.782 282.528 338.782 284.032C338.782 285.525 338.456 286.901 337.806 288.16C337.166 289.419 336.232 290.427 335.006 291.184C333.779 291.941 332.296 292.32 330.558 292.32ZM330.558 289.056C331.891 289.056 332.915 288.592 333.63 287.664C334.355 286.725 334.718 285.515 334.718 284.032C334.718 282.528 334.355 281.307 333.63 280.368C332.915 279.419 331.891 278.944 330.558 278.944C329.235 278.944 328.211 279.419 327.486 280.368C326.76 281.307 326.398 282.528 326.398 284.032C326.398 285.515 326.76 286.725 327.486 287.664C328.211 288.592 329.235 289.056 330.558 289.056Z" fill="url(#paint0_linear_1_130)"/>
<mask id="path-2-inside-1_1_130" fill="white">
<rect x="34" y="56" width="267" height="167" rx="9"/>
</mask>
<rect x="34" y="56" width="267" height="167" rx="9" fill="#C3BDFF" stroke="#06013D" stroke-width="20" mask="url(#path-2-inside-1_1_130)"/>
<circle cx="168" cy="186" r="21" fill="white"/>
<path fill-rule="evenodd" clip-rule="evenodd" d="M168 165V207C156.402 207 147 197.598 147 186C147 174.402 156.402 165 168 165Z" fill="#ECEBEB"/>
<path fill-rule="evenodd" clip-rule="evenodd" d="M181.471 202.11C177.825 205.163 173.127 207 168 207C162.308 207 157.146 204.736 153.363 201.059C154.508 199.876 156.553 198 158 198C159.656 198 161.402 198 163.226 198C167.459 198 172.107 198 177 198C178.665 198 180.568 200.673 181.471 202.11Z" fill="#F13582"/>
<path d="M168.05 169C180.153 169 179.396 189.9 179.109 194.223C179.079 194.686 178.725 195.044 178.265 195.107L168.05 196.5L156.837 194.631C156.376 194.554 156.032 194.183 156.019 193.716C155.9 189.428 155.967 169 168.05 169Z" fill="black"/>
<path d="M166 200C166 200 167.5 196.501 165.5 196C163.5 195.5 160 192 160.564 183C160.564 183 166.5 180.501 167 180.001C167.5 179.5 168.5 179.5 169.5 180C170.5 180.501 176 183.001 176 183.001C176.5 194.5 171.5 195.167 170.5 196C169.5 196.834 170.5 200 170.5 200C170.5 200 170 201.001 168 201.001C166 201.001 166 200 166 200Z" fill="#F5C195"/>
<path d="M168 179.656V201C166.5 200.962 165.5 200 165.5 200C165.5 200 166.5 197.5 165.5 196C162.5 194 160 190 160.564 183C162.738 182.182 167 179.656 168 179.656Z" fill="#E5B28A"/>
<path d="M69 0H265V152H114L117.5 179.5L99.5 152H69V0Z" fill="white"/>
<path d="M99.5 151.5H69.5V0.5H264.5V151.5H114H113.432L113.504 152.063L116.73 177.411L99.9184 151.726L99.7703 151.5H99.5Z" stroke="#AAAAAA" stroke-opacity="0.3"/>
<rect x="69" width="196" height="20" fill="#06013D"/>
<rect x="125" y="7" width="90" height="5" rx="1" fill="white"/>
<rect x="88" y="32" width="146" height="3" rx="1" fill="#D3D3D3"/>
<rect x="88" y="42" width="74" height="3" fill="#D3D3D3"/>
<rect x="88" y="53" width="46" height="3" rx="1" fill="#D3D3D3"/>
<rect x="144" y="53" width="46" height="3" rx="1" fill="#D3D3D3"/>
<rect x="198" y="101" width="46" height="3" rx="1" fill="#D3D3D3"/>
<rect x="198" y="108" width="46" height="3" rx="1" fill="#D3D3D3"/>
<rect x="198" y="115" width="46" height="3" rx="1" fill="#D3D3D3"/>
<rect x="198" y="122" width="46" height="3" rx="1" fill="#D3D3D3"/>
<rect x="88" y="60" width="46" height="3" rx="1" fill="#D3D3D3"/>
<rect x="144" y="60" width="46" height="3" rx="1" fill="#D3D3D3"/>
<rect x="144" y="67" width="46" height="3" rx="1" fill="#D3D3D3"/>
<rect x="144" y="74" width="46" height="3" rx="1" fill="#D3D3D3"/>
<rect x="144" y="81" width="46" height="3" rx="1" fill="#D3D3D3"/>
<rect x="144" y="88" width="46" height="3" rx="1" fill="#D3D3D3"/>
<rect x="144" y="95" width="46" height="3" rx="1" fill="#D3D3D3"/>
<rect x="144" y="102" width="46" height="3" rx="1" fill="#D3D3D3"/>
<rect x="144" y="109" width="46" height="3" rx="1" fill="#D3D3D3"/>
<rect x="144" y="116" width="46" height="3" rx="1" fill="#D3D3D3"/>
<rect x="144" y="123" width="46" height="3" rx="1" fill="#D3D3D3"/>
<rect x="88" y="67" width="46" height="3" rx="1" fill="#D3D3D3"/>
<rect x="88" y="74" width="46" height="3" rx="1" fill="#D3D3D3"/>
<rect x="88" y="81" width="46" height="3" rx="1" fill="#D3D3D3"/>
<rect x="88" y="88" width="46" height="3" rx="1" fill="#D3D3D3"/>
<rect x="88" y="95" width="46" height="3" rx="1" fill="#D3D3D3"/>
<rect x="88" y="102" width="46" height="3" rx="1" fill="#D3D3D3"/>
<rect x="88" y="109" width="46" height="3" rx="1" fill="#D3D3D3"/>
<rect x="88" y="116" width="46" height="3" rx="1" fill="#D3D3D3"/>
<rect x="88" y="123" width="46" height="3" rx="1" fill="#D3D3D3"/>
<circle cx="91" cy="9" r="3" fill="white"/>
<circle cx="101" cy="9" r="3" fill="white"/>
<circle cx="111" cy="9" r="3" fill="white"/>
<rect x="198" y="53" width="47" height="43" fill="#4B75FB"/>
<rect x="198" y="53" width="47" height="43" fill="white" fill-opacity="0.33"/>
<circle cx="212" cy="74" r="3" fill="white"/>
<path d="M211.335 84.5699L198 96H244.5L232.636 84.6108C232.273 84.2618 231.706 84.2378 231.315 84.5549L222.162 91.9644C221.78 92.2731 221.231 92.2596 220.866 91.9324L212.653 84.584C212.279 84.2497 211.716 84.2437 211.335 84.5699Z" fill="black"/>
<g filter="url(#filter0_d_1_130)">
<path d="M10 223H320.851C320.851 223 322.962 225.182 321.462 228.455C319.962 231.727 314.352 235 314.352 235H19.3878C19.3878 235 11.8748 232.273 10.9999 228.455C10.1249 224.636 10 223 10 223Z" fill="#EEEEEE"/>
</g>
<path d="M324 223H10.0877C10.0877 223 9.58705 225.5 10.9781 228H321.882C323.499 226 324 223 324 223Z" fill="#AAAAAA"/>
<rect x="148" y="223" width="40" height="5" fill="#77808D"/>
<defs>
<filter id="filter0_d_1_130" x="8" y="222" width="316" height="16" filterUnits="userSpaceOnUse" color-interpolation-filters="sRGB">
<feFlood flood-opacity="0" result="BackgroundImageFix"/>
<feColorMatrix in="SourceAlpha" type="matrix" values="0 0 0 0 0 0 0 0 0 0 0 0 0 0 0 0 0 0 127 0" result="hardAlpha"/>
<feOffset dy="1"/>
<feGaussianBlur stdDeviation="1"/>
<feComposite in2="hardAlpha" operator="out"/>
<feColorMatrix type="matrix" values="0 0 0 0 0 0 0 0 0 0 0 0 0 0 0 0 0 0 0.12 0"/>
<feBlend mode="normal" in2="BackgroundImageFix" result="effect1_dropShadow_1_130"/>
<feBlend mode="normal" in="SourceGraphic" in2="effect1_dropShadow_1_130" result="shape"/>
</filter>
<linearGradient id="paint0_linear_1_130" x1="82.2831" y1="273.581" x2="196.84" y2="297.297" gradientUnits="userSpaceOnUse">
<stop stop-color="#5543FF"/>
<stop offset="1" stop-color="#4B75FB"/>
</linearGradient>
</defs>
</svg>
